<?xml version="1.0" encoding="UTF-8" standalone="no"?>
<!-- Generator: Adobe Illustrator 16.2.0, SVG Export Plug-In . SVG Version: 6.00 Build 0)  -->

<svg
   version="1.1"
   id="Layer_1"
   x="0px"
   y="0px"
   width="600px"
   height="350px"
   viewBox="0 0 600 350"
   enable-background="new 0 0 600 350"
   xml:space="preserve"
   sodipodi:docname="ejoi2024_logo.svg"
   inkscape:version="1.3.2 (091e20e, 2023-11-25, custom)"
   xmlns:inkscape="http://www.inkscape.org/namespaces/inkscape"
   xmlns:sodipodi="http://sodipodi.sourceforge.net/DTD/sodipodi-0.dtd"
   xmlns:xlink="http://www.w3.org/1999/xlink"
   xmlns="http://www.w3.org/2000/svg"
   xmlns:svg="http://www.w3.org/2000/svg"><defs
   id="defs44" /><sodipodi:namedview
   id="namedview44"
   pagecolor="#ffffff"
   bordercolor="#000000"
   borderopacity="0.25"
   inkscape:showpageshadow="2"
   inkscape:pageopacity="0.0"
   inkscape:pagecheckerboard="0"
   inkscape:deskcolor="#d1d1d1"
   inkscape:zoom="1.3266667"
   inkscape:cx="300"
   inkscape:cy="174.87437"
   inkscape:window-width="1280"
   inkscape:window-height="730"
   inkscape:window-x="-6"
   inkscape:window-y="-6"
   inkscape:window-maximized="1"
   inkscape:current-layer="Layer_1" />
<g
   id="g44"
   transform="matrix(1.7652754,0,0,1.7652754,-228.45158,-133.36493)">
	<defs
   id="defs1">
		<rect
   id="SVGID_1_"
   width="600"
   height="350"
   x="0"
   y="0" />
	</defs>
	<clipPath
   id="SVGID_2_">
		<use
   xlink:href="#SVGID_1_"
   overflow="visible"
   id="use1" />
	</clipPath>
	<path
   clip-path="url(#SVGID_2_)"
   fill="#061c35"
   d="m 152.636,248.108 c 0.348,0 0.637,0.103 0.874,0.308 0.236,0.205 0.352,0.459 0.352,0.763 0,0.307 -0.116,0.557 -0.352,0.753 -0.237,0.2 -0.526,0.298 -0.874,0.298 h -9.158 c -0.384,0 -0.691,-0.098 -0.927,-0.298 -0.237,-0.196 -0.352,-0.464 -0.352,-0.798 0,-0.304 0.129,-0.575 0.392,-0.82 l 5.793,-5.5 c 0.762,-0.699 1.351,-1.39 1.761,-2.076 0.405,-0.687 0.61,-1.284 0.61,-1.801 0,-0.838 -0.285,-1.511 -0.86,-2.023 -0.575,-0.508 -1.328,-0.762 -2.268,-0.762 -0.401,0 -0.807,0.076 -1.217,0.227 -0.406,0.152 -0.789,0.366 -1.145,0.643 -0.357,0.271 -0.664,0.575 -0.927,0.909 -0.174,0.231 -0.348,0.37 -0.522,0.423 -0.174,0.054 -0.338,0.081 -0.494,0.081 -0.335,0 -0.633,-0.104 -0.901,-0.309 -0.272,-0.205 -0.405,-0.445 -0.405,-0.717 0,-0.214 0.076,-0.419 0.236,-0.62 0.156,-0.195 0.357,-0.4 0.597,-0.614 0.383,-0.41 0.851,-0.78 1.4,-1.105 0.543,-0.33 1.123,-0.584 1.733,-0.767 0.606,-0.183 1.208,-0.272 1.801,-0.272 1.15,0 2.143,0.197 2.986,0.593 0.846,0.397 1.497,0.949 1.956,1.667 0.464,0.713 0.695,1.561 0.695,2.531 0,0.82 -0.285,1.734 -0.851,2.737 -0.566,1.007 -1.35,1.978 -2.362,2.923 l -4.042,3.854 -0.29,-0.227 h 6.761 z"
   id="path1" />
	<path
   clip-path="url(#SVGID_2_)"
   fill="#061c35"
   d="m 163.202,250.457 c -1.462,0 -2.696,-0.348 -3.703,-1.047 -1.012,-0.7 -1.774,-1.676 -2.287,-2.924 -0.512,-1.248 -0.771,-2.66 -0.771,-4.243 0,-1.595 0.259,-3.018 0.771,-4.256 0.513,-1.239 1.275,-2.21 2.287,-2.91 1.007,-0.7 2.241,-1.047 3.703,-1.047 1.462,0 2.692,0.347 3.69,1.047 1.003,0.7 1.765,1.671 2.286,2.91 0.522,1.238 0.78,2.661 0.78,4.256 0,1.583 -0.258,2.995 -0.78,4.243 -0.521,1.248 -1.283,2.224 -2.286,2.924 -0.997,0.699 -2.227,1.047 -3.69,1.047 m 0,-2.304 c 0.816,0 1.515,-0.228 2.099,-0.687 0.584,-0.455 1.034,-1.123 1.346,-2.006 0.312,-0.882 0.468,-1.956 0.468,-3.218 0,-1.279 -0.156,-2.354 -0.468,-3.227 -0.312,-0.878 -0.762,-1.542 -1.346,-1.997 -0.584,-0.459 -1.283,-0.686 -2.099,-0.686 -0.82,0 -1.524,0.227 -2.112,0.686 -0.593,0.455 -1.048,1.119 -1.36,1.997 -0.312,0.873 -0.468,1.947 -0.468,3.227 0,1.262 0.156,2.336 0.468,3.218 0.312,0.883 0.767,1.551 1.36,2.006 0.588,0.46 1.292,0.687 2.112,0.687"
   id="path2" />
	<path
   clip-path="url(#SVGID_2_)"
   fill="#061c35"
   d="m 183.217,248.108 c 0.348,0 0.637,0.103 0.874,0.308 0.236,0.205 0.352,0.459 0.352,0.763 0,0.307 -0.116,0.557 -0.352,0.753 -0.237,0.2 -0.526,0.298 -0.874,0.298 h -9.158 c -0.384,0 -0.691,-0.098 -0.927,-0.298 -0.237,-0.196 -0.352,-0.464 -0.352,-0.798 0,-0.304 0.129,-0.575 0.392,-0.82 l 5.793,-5.5 c 0.762,-0.699 1.351,-1.39 1.761,-2.076 0.405,-0.687 0.61,-1.284 0.61,-1.801 0,-0.838 -0.285,-1.511 -0.86,-2.023 -0.575,-0.508 -1.328,-0.762 -2.268,-0.762 -0.401,0 -0.807,0.076 -1.217,0.227 -0.406,0.152 -0.789,0.366 -1.145,0.643 -0.357,0.271 -0.664,0.575 -0.927,0.909 -0.174,0.231 -0.348,0.37 -0.522,0.423 -0.174,0.054 -0.338,0.081 -0.494,0.081 -0.335,0 -0.633,-0.104 -0.901,-0.309 -0.272,-0.205 -0.405,-0.445 -0.405,-0.717 0,-0.214 0.076,-0.419 0.236,-0.62 0.156,-0.195 0.357,-0.4 0.597,-0.614 0.383,-0.41 0.851,-0.78 1.4,-1.105 0.543,-0.33 1.123,-0.584 1.733,-0.767 0.606,-0.183 1.208,-0.272 1.801,-0.272 1.15,0 2.143,0.197 2.986,0.593 0.846,0.397 1.497,0.949 1.956,1.667 0.464,0.713 0.695,1.561 0.695,2.531 0,0.82 -0.285,1.734 -0.851,2.737 -0.566,1.007 -1.35,1.978 -2.362,2.923 l -4.042,3.854 -0.29,-0.227 h 6.761 z"
   id="path3" />
	<path
   clip-path="url(#SVGID_2_)"
   fill="#061c35"
   d="m 195.691,250.229 c -0.365,0 -0.677,-0.11 -0.927,-0.33 -0.254,-0.223 -0.379,-0.499 -0.379,-0.833 v -11.592 l 0.495,0.116 -5.638,6.297 -0.129,-0.298 h 9.497 c 0.348,0 0.642,0.102 0.878,0.307 0.232,0.205 0.352,0.459 0.352,0.768 0,0.289 -0.12,0.529 -0.352,0.73 -0.236,0.196 -0.53,0.294 -0.878,0.294 h -11.298 c -0.311,0 -0.61,-0.111 -0.886,-0.33 -0.277,-0.223 -0.419,-0.48 -0.419,-0.789 0,-0.289 0.116,-0.548 0.343,-0.774 l 8.271,-9.083 c 0.139,-0.152 0.303,-0.263 0.495,-0.339 0.192,-0.076 0.392,-0.116 0.602,-0.116 0.379,0 0.695,0.112 0.936,0.33 0.245,0.223 0.365,0.499 0.365,0.834 v 13.646 c 0,0.334 -0.129,0.61 -0.392,0.833 -0.259,0.219 -0.57,0.329 -0.936,0.329"
   id="path4" />
	<path
   clip-path="url(#SVGID_2_)"
   fill="#061c35"
   d="m 210.487,244.32 c -0.365,0 -0.677,-0.111 -0.94,-0.33 -0.259,-0.223 -0.393,-0.49 -0.393,-0.811 0,-0.334 0.134,-0.606 0.393,-0.812 0.263,-0.205 0.575,-0.308 0.94,-0.308 h 4.907 c 0.365,0 0.677,0.111 0.94,0.33 0.259,0.223 0.388,0.499 0.388,0.834 0,0.32 -0.129,0.583 -0.388,0.788 -0.263,0.206 -0.575,0.308 -0.94,0.308 h -4.907 z"
   id="path5" />
	<path
   clip-path="url(#SVGID_2_)"
   fill="#061c35"
   d="m 240.414,235.171 c 0.383,0.165 0.606,0.423 0.668,0.774 0.058,0.349 -0.049,0.67 -0.329,0.96 -0.192,0.244 -0.433,0.373 -0.731,0.4 -0.294,0.022 -0.597,-0.036 -0.909,-0.174 -0.491,-0.227 -1.016,-0.41 -1.582,-0.548 -0.566,-0.134 -1.15,-0.205 -1.761,-0.205 -0.989,0 -1.885,0.146 -2.674,0.432 -0.793,0.29 -1.475,0.695 -2.05,1.212 -0.575,0.518 -1.012,1.133 -1.315,1.851 -0.307,0.713 -0.459,1.502 -0.459,2.371 0,0.958 0.165,1.805 0.495,2.544 0.33,0.735 0.789,1.359 1.373,1.872 0.584,0.508 1.27,0.887 2.059,1.141 0.793,0.25 1.649,0.375 2.571,0.375 0.593,0 1.172,-0.058 1.734,-0.183 0.566,-0.121 1.101,-0.304 1.609,-0.549 0.312,-0.134 0.615,-0.183 0.909,-0.146 0.298,0.04 0.548,0.169 0.757,0.401 0.281,0.315 0.384,0.646 0.317,0.979 -0.071,0.334 -0.29,0.579 -0.655,0.731 -0.433,0.214 -0.914,0.396 -1.435,0.557 -0.522,0.161 -1.052,0.281 -1.591,0.366 -0.54,0.084 -1.088,0.124 -1.645,0.124 -1.252,0 -2.438,-0.183 -3.561,-0.548 -1.123,-0.365 -2.112,-0.896 -2.977,-1.596 -0.86,-0.699 -1.542,-1.56 -2.045,-2.581 -0.508,-1.016 -0.758,-2.179 -0.758,-3.488 0,-1.172 0.236,-2.251 0.704,-3.24 0.468,-0.99 1.128,-1.851 1.97,-2.581 0.842,-0.726 1.832,-1.297 2.964,-1.698 1.127,-0.4 2.362,-0.605 3.703,-0.605 0.834,0 1.649,0.094 2.442,0.276 0.789,0.183 1.525,0.442 2.202,0.776"
   id="path6" />
	<path
   clip-path="url(#SVGID_2_)"
   fill="#061c35"
   d="m 250.669,238.023 c 1.203,0 2.135,0.223 2.794,0.673 0.66,0.45 1.128,1.052 1.395,1.813 0.272,0.763 0.406,1.596 0.406,2.509 v 6.049 c 0,0.334 -0.125,0.609 -0.379,0.833 -0.254,0.218 -0.562,0.33 -0.927,0.33 -0.383,0 -0.7,-0.112 -0.949,-0.33 -0.254,-0.224 -0.379,-0.499 -0.379,-0.833 v -6.049 c 0,-0.529 -0.085,-1.016 -0.25,-1.447 -0.165,-0.434 -0.45,-0.785 -0.846,-1.053 -0.402,-0.263 -0.968,-0.396 -1.698,-0.396 -0.678,0 -1.284,0.134 -1.814,0.396 -0.531,0.268 -0.941,0.619 -1.226,1.053 -0.285,0.432 -0.432,0.918 -0.432,1.447 v 6.049 c 0,0.334 -0.125,0.609 -0.379,0.833 -0.25,0.218 -0.557,0.33 -0.922,0.33 -0.384,0 -0.705,-0.112 -0.954,-0.33 -0.254,-0.224 -0.379,-0.499 -0.379,-0.833 v -14.561 c 0,-0.335 0.125,-0.61 0.379,-0.834 0.249,-0.218 0.57,-0.329 0.954,-0.329 0.365,0 0.672,0.111 0.922,0.329 0.254,0.224 0.379,0.499 0.379,0.834 v 6.23 l -0.468,0.227 c 0.12,-0.334 0.325,-0.677 0.615,-1.024 0.285,-0.353 0.642,-0.668 1.07,-0.958 0.423,-0.289 0.9,-0.521 1.421,-0.695 0.522,-0.178 1.079,-0.263 1.667,-0.263"
   id="path7" />
	<path
   clip-path="url(#SVGID_2_)"
   fill="#061c35"
   d="m 260.015,236.628 c -0.508,0 -0.874,-0.075 -1.096,-0.236 -0.228,-0.16 -0.339,-0.432 -0.339,-0.811 v -0.365 c 0,-0.379 0.12,-0.646 0.365,-0.798 0.241,-0.152 0.606,-0.228 1.092,-0.228 0.526,0 0.896,0.08 1.123,0.236 0.228,0.16 0.339,0.423 0.339,0.789 v 0.365 c 0,0.396 -0.116,0.669 -0.352,0.819 -0.232,0.154 -0.612,0.229 -1.132,0.229 m 1.327,12.438 c 0,0.334 -0.12,0.611 -0.365,0.833 -0.241,0.219 -0.558,0.33 -0.941,0.33 -0.379,0 -0.695,-0.111 -0.936,-0.33 -0.245,-0.222 -0.365,-0.499 -0.365,-0.833 v -9.765 c 0,-0.338 0.125,-0.615 0.379,-0.833 0.249,-0.224 0.561,-0.334 0.922,-0.334 0.383,0 0.7,0.11 0.941,0.334 0.245,0.218 0.365,0.495 0.365,0.833 z"
   id="path8" />
	<path
   clip-path="url(#SVGID_2_)"
   fill="#061c35"
   d="m 264.057,248.358 c -0.156,-0.214 -0.223,-0.459 -0.205,-0.74 0.013,-0.281 0.196,-0.521 0.543,-0.722 0.245,-0.135 0.504,-0.192 0.771,-0.169 0.272,0.021 0.526,0.142 0.771,0.352 0.486,0.472 1.03,0.846 1.631,1.118 0.602,0.277 1.324,0.41 2.18,0.41 0.347,-0.014 0.704,-0.063 1.069,-0.147 0.366,-0.084 0.678,-0.235 0.941,-0.454 0.258,-0.223 0.387,-0.544 0.387,-0.972 0,-0.379 -0.138,-0.682 -0.414,-0.9 -0.281,-0.218 -0.646,-0.405 -1.096,-0.557 -0.455,-0.156 -0.95,-0.29 -1.489,-0.415 -0.557,-0.133 -1.114,-0.285 -1.671,-0.454 -0.557,-0.17 -1.065,-0.383 -1.524,-0.65 -0.464,-0.268 -0.834,-0.61 -1.11,-1.038 -0.276,-0.425 -0.419,-0.95 -0.419,-1.573 0,-0.718 0.227,-1.333 0.682,-1.85 0.45,-0.518 1.052,-0.919 1.8,-1.208 0.745,-0.289 1.547,-0.438 2.398,-0.438 0.521,0 1.061,0.058 1.618,0.174 0.557,0.112 1.096,0.294 1.618,0.535 0.521,0.245 0.976,0.563 1.359,0.958 0.174,0.201 0.272,0.433 0.298,0.709 0.027,0.272 -0.115,0.526 -0.432,0.753 -0.205,0.152 -0.459,0.218 -0.753,0.192 -0.299,-0.023 -0.539,-0.107 -0.731,-0.259 -0.33,-0.365 -0.758,-0.65 -1.279,-0.848 -0.521,-0.196 -1.114,-0.294 -1.774,-0.294 -0.334,0 -0.677,0.036 -1.034,0.112 -0.356,0.075 -0.655,0.223 -0.9,0.432 -0.241,0.214 -0.365,0.526 -0.365,0.937 0,0.383 0.147,0.686 0.432,0.914 0.285,0.227 0.664,0.418 1.136,0.569 0.468,0.152 0.981,0.29 1.538,0.41 0.539,0.125 1.074,0.268 1.604,0.438 0.531,0.165 1.012,0.383 1.435,0.646 0.428,0.268 0.776,0.611 1.048,1.029 0.267,0.419 0.401,0.944 0.401,1.587 0,0.744 -0.245,1.377 -0.744,1.903 -0.495,0.525 -1.119,0.927 -1.877,1.198 -0.757,0.272 -1.555,0.41 -2.389,0.41 -0.989,0 -1.978,-0.156 -2.959,-0.468 -0.985,-0.311 -1.814,-0.855 -2.495,-1.63 m 7.099,5.067 c 0,0.473 -0.156,0.94 -0.468,1.413 -0.316,0.473 -0.709,0.864 -1.177,1.177 -0.467,0.312 -0.967,0.468 -1.488,0.468 -0.174,0 -0.352,-0.059 -0.535,-0.174 -0.183,-0.111 -0.272,-0.313 -0.272,-0.602 0,-0.321 0.107,-0.508 0.326,-0.562 0.218,-0.054 0.432,-0.125 0.637,-0.214 0.245,-0.107 0.437,-0.24 0.575,-0.401 0.138,-0.16 0.209,-0.347 0.209,-0.557 0,-0.184 -0.08,-0.334 -0.245,-0.459 -0.169,-0.12 -0.379,-0.184 -0.642,-0.184 -0.102,0 -0.222,0.014 -0.352,0.036 -0.129,0.022 -0.249,0.063 -0.352,0.125 -0.156,-0.076 -0.285,-0.165 -0.392,-0.272 -0.102,-0.106 -0.156,-0.267 -0.156,-0.48 0,-0.397 0.219,-0.74 0.651,-1.039 0.437,-0.294 0.931,-0.445 1.488,-0.445 0.66,0 1.19,0.205 1.591,0.619 0.401,0.41 0.602,0.927 0.602,1.551"
   id="path9" />
	<path
   clip-path="url(#SVGID_2_)"
   fill="#061c35"
   d="m 278.465,236.628 c -0.508,0 -0.874,-0.075 -1.096,-0.236 -0.228,-0.16 -0.339,-0.432 -0.339,-0.811 v -0.365 c 0,-0.379 0.12,-0.646 0.365,-0.798 0.241,-0.152 0.606,-0.228 1.092,-0.228 0.526,0 0.896,0.08 1.123,0.236 0.228,0.16 0.339,0.423 0.339,0.789 v 0.365 c 0,0.396 -0.116,0.669 -0.352,0.819 -0.232,0.154 -0.611,0.229 -1.132,0.229 m 1.328,12.438 c 0,0.334 -0.12,0.611 -0.365,0.833 -0.241,0.219 -0.558,0.33 -0.941,0.33 -0.379,0 -0.695,-0.111 -0.936,-0.33 -0.245,-0.222 -0.365,-0.499 -0.365,-0.833 v -9.765 c 0,-0.338 0.125,-0.615 0.379,-0.833 0.249,-0.224 0.561,-0.334 0.922,-0.334 0.383,0 0.7,0.11 0.941,0.334 0.245,0.218 0.365,0.495 0.365,0.833 z"
   id="path10" />
	<path
   clip-path="url(#SVGID_2_)"
   fill="#061c35"
   d="m 290.386,237.952 c 1.234,0 2.188,0.227 2.87,0.673 0.677,0.449 1.15,1.052 1.422,1.805 0.267,0.753 0.405,1.595 0.405,2.522 v 6.114 c 0,0.334 -0.129,0.61 -0.379,0.833 -0.254,0.22 -0.561,0.33 -0.926,0.33 -0.384,0 -0.7,-0.11 -0.954,-0.33 -0.254,-0.223 -0.379,-0.499 -0.379,-0.833 v -6.092 c 0,-0.549 -0.085,-1.039 -0.259,-1.471 -0.173,-0.438 -0.472,-0.78 -0.886,-1.038 -0.419,-0.259 -1.012,-0.388 -1.779,-0.388 -0.713,0 -1.337,0.129 -1.876,0.388 -0.539,0.258 -0.962,0.601 -1.266,1.038 -0.303,0.432 -0.459,0.922 -0.459,1.471 v 6.092 c 0,0.334 -0.124,0.61 -0.378,0.833 -0.25,0.22 -0.557,0.33 -0.923,0.33 -0.383,0 -0.704,-0.11 -0.954,-0.33 -0.254,-0.223 -0.378,-0.499 -0.378,-0.833 v -9.676 c 0,-0.334 0.124,-0.61 0.378,-0.833 0.25,-0.218 0.571,-0.33 0.954,-0.33 0.366,0 0.673,0.112 0.923,0.33 0.254,0.223 0.378,0.499 0.378,0.833 v 1.28 l -0.468,0.227 c 0.121,-0.334 0.335,-0.673 0.638,-1.016 0.307,-0.343 0.677,-0.66 1.109,-0.958 0.437,-0.299 0.923,-0.531 1.462,-0.709 0.54,-0.173 1.114,-0.262 1.725,-0.262"
   id="path11" />
	<path
   clip-path="url(#SVGID_2_)"
   fill="#061c35"
   d="m 309.956,238.046 c 0.383,0 0.699,0.11 0.939,0.33 0.245,0.222 0.366,0.498 0.366,0.833 v 9.857 c 0,0.334 -0.121,0.611 -0.366,0.833 -0.24,0.219 -0.557,0.33 -0.939,0.33 -0.379,0 -0.696,-0.111 -0.937,-0.33 -0.244,-0.222 -0.365,-0.499 -0.365,-0.833 v -1.644 l 0.549,0.093 c 0,0.259 -0.13,0.557 -0.379,0.899 -0.254,0.345 -0.598,0.664 -1.034,0.973 -0.433,0.303 -0.945,0.557 -1.538,0.762 -0.592,0.205 -1.225,0.308 -1.903,0.308 -1.203,0 -2.282,-0.268 -3.234,-0.812 -0.958,-0.539 -1.716,-1.279 -2.273,-2.223 -0.557,-0.941 -0.834,-2.016 -0.834,-3.219 0,-1.229 0.277,-2.313 0.834,-3.249 0.557,-0.936 1.31,-1.671 2.259,-2.201 0.945,-0.534 1.997,-0.803 3.143,-0.803 0.749,0 1.439,0.107 2.077,0.321 0.633,0.214 1.186,0.486 1.653,0.82 0.473,0.339 0.837,0.69 1.097,1.064 0.263,0.37 0.392,0.728 0.392,1.062 l -0.807,0.066 v -2.076 c 0,-0.321 0.121,-0.594 0.365,-0.82 0.239,-0.226 0.556,-0.341 0.935,-0.341 m -5.322,10.311 c 0.816,0 1.538,-0.182 2.166,-0.548 0.624,-0.365 1.115,-0.86 1.462,-1.493 0.349,-0.633 0.522,-1.337 0.522,-2.112 0,-0.775 -0.174,-1.479 -0.522,-2.107 -0.347,-0.633 -0.838,-1.128 -1.462,-1.484 -0.628,-0.356 -1.35,-0.535 -2.166,-0.535 -0.802,0 -1.51,0.179 -2.125,0.535 -0.62,0.356 -1.105,0.848 -1.462,1.47 -0.357,0.624 -0.535,1.333 -0.535,2.122 0,0.775 0.178,1.479 0.535,2.112 0.356,0.633 0.842,1.128 1.462,1.493 0.615,0.366 1.323,0.547 2.125,0.547 m 0.103,-11.159 c -0.624,0 -1.203,-0.094 -1.734,-0.285 -0.53,-0.187 -0.985,-0.464 -1.354,-0.819 -0.375,-0.357 -0.642,-0.763 -0.798,-1.222 -0.138,-0.316 -0.129,-0.574 0.027,-0.762 0.156,-0.191 0.374,-0.286 0.65,-0.286 0.329,0 0.593,0.063 0.784,0.192 0.191,0.129 0.374,0.307 0.549,0.539 0.155,0.303 0.392,0.544 0.703,0.718 0.313,0.174 0.704,0.263 1.173,0.263 0.454,0 0.838,-0.089 1.149,-0.263 0.313,-0.174 0.558,-0.415 0.731,-0.718 0.19,-0.232 0.379,-0.41 0.561,-0.539 0.184,-0.129 0.428,-0.192 0.744,-0.192 0.295,0 0.522,0.089 0.678,0.272 0.156,0.183 0.165,0.428 0.027,0.73 -0.156,0.473 -0.424,0.888 -0.798,1.243 -0.374,0.357 -0.82,0.639 -1.342,0.834 -0.52,0.198 -1.104,0.295 -1.75,0.295"
   id="path12" />
	<path
   clip-path="url(#SVGID_2_)"
   fill="#061c35"
   d="m 324.881,238.228 c 0.365,0 0.673,0.111 0.927,0.33 0.25,0.224 0.38,0.499 0.38,0.833 v 6.003 c 0,1.582 -0.505,2.817 -1.516,3.708 -1.008,0.888 -2.434,1.333 -4.279,1.333 -1.845,0 -3.267,-0.445 -4.265,-1.333 -1.003,-0.891 -1.502,-2.126 -1.502,-3.708 v -6.003 c 0,-0.334 0.125,-0.609 0.379,-0.833 0.25,-0.219 0.57,-0.33 0.954,-0.33 0.365,0 0.673,0.111 0.922,0.33 0.254,0.224 0.379,0.499 0.379,0.833 v 6.003 c 0,0.985 0.269,1.726 0.798,2.212 0.53,0.485 1.311,0.73 2.335,0.73 1.043,0 1.832,-0.245 2.362,-0.73 0.531,-0.486 0.793,-1.227 0.793,-2.212 v -6.003 c 0,-0.334 0.13,-0.609 0.379,-0.833 0.254,-0.219 0.571,-0.33 0.954,-0.33"
   id="path13" />
	<path
   clip-path="url(#SVGID_2_)"
   fill="#061c35"
   d="m 337.93,244.32 c -0.364,0 -0.677,-0.111 -0.939,-0.33 -0.259,-0.223 -0.394,-0.49 -0.394,-0.811 0,-0.334 0.135,-0.606 0.394,-0.812 0.263,-0.205 0.575,-0.308 0.939,-0.308 h 4.907 c 0.365,0 0.677,0.111 0.94,0.33 0.259,0.223 0.388,0.499 0.388,0.834 0,0.32 -0.129,0.583 -0.388,0.788 -0.264,0.206 -0.575,0.308 -0.94,0.308 h -4.907 z"
   id="path14" />
	<path
   clip-path="url(#SVGID_2_)"
   fill="#061c35"
   d="m 356.251,234.235 c 0.209,0 0.423,0.049 0.651,0.146 0.227,0.098 0.401,0.228 0.521,0.379 l 6.628,8.829 -1.118,-0.045 6.756,-8.784 c 0.281,-0.352 0.637,-0.525 1.068,-0.525 0.349,0 0.66,0.11 0.928,0.329 0.271,0.224 0.405,0.499 0.405,0.833 v 13.67 c 0,0.334 -0.129,0.609 -0.379,0.833 -0.254,0.219 -0.579,0.329 -0.979,0.329 -0.397,0 -0.728,-0.11 -0.977,-0.329 -0.254,-0.224 -0.379,-0.499 -0.379,-0.833 v -11.57 l 0.833,0.161 -5.739,7.643 c -0.12,0.138 -0.281,0.254 -0.481,0.353 -0.201,0.102 -0.396,0.15 -0.589,0.15 -0.191,0 -0.387,-0.049 -0.588,-0.15 -0.2,-0.099 -0.361,-0.215 -0.481,-0.353 l -5.531,-7.532 0.624,-0.908 v 12.207 c 0,0.334 -0.115,0.609 -0.352,0.833 -0.236,0.219 -0.544,0.329 -0.927,0.329 -0.365,0 -0.664,-0.11 -0.9,-0.329 -0.231,-0.224 -0.352,-0.499 -0.352,-0.833 v -13.67 c 0,-0.303 0.133,-0.574 0.404,-0.811 0.268,-0.236 0.59,-0.352 0.954,-0.352"
   id="path15" />
	<path
   clip-path="url(#SVGID_2_)"
   fill="#061c35"
   d="m 389.182,244.227 c 0,1.221 -0.303,2.295 -0.914,3.231 -0.61,0.936 -1.435,1.671 -2.478,2.202 -1.047,0.533 -2.219,0.797 -3.525,0.797 -1.306,0 -2.478,-0.264 -3.521,-0.797 -1.043,-0.531 -1.876,-1.267 -2.491,-2.202 -0.62,-0.937 -0.927,-2.011 -0.927,-3.231 0,-1.229 0.307,-2.313 0.927,-3.249 0.615,-0.936 1.448,-1.676 2.491,-2.215 1.043,-0.539 2.215,-0.811 3.521,-0.811 1.307,0 2.479,0.271 3.525,0.811 1.043,0.539 1.867,1.279 2.478,2.215 0.611,0.936 0.914,2.019 0.914,3.249 m -2.612,0 c 0,-0.833 -0.192,-1.56 -0.57,-2.179 -0.384,-0.615 -0.901,-1.097 -1.556,-1.449 -0.651,-0.347 -1.377,-0.521 -2.18,-0.521 -0.798,0 -1.528,0.174 -2.192,0.521 -0.659,0.353 -1.182,0.834 -1.564,1.449 -0.383,0.619 -0.575,1.346 -0.575,2.179 0,0.808 0.192,1.524 0.575,2.148 0.383,0.624 0.905,1.109 1.564,1.457 0.664,0.353 1.395,0.525 2.192,0.525 0.803,0 1.528,-0.173 2.18,-0.525 0.654,-0.348 1.172,-0.833 1.556,-1.457 0.378,-0.624 0.57,-1.341 0.57,-2.148"
   id="path16" />
	<path
   clip-path="url(#SVGID_2_)"
   fill="#061c35"
   d="m 394.944,249.066 c 0,0.334 -0.125,0.611 -0.379,0.833 -0.249,0.219 -0.562,0.33 -0.928,0.33 -0.364,0 -0.673,-0.111 -0.922,-0.33 -0.254,-0.222 -0.379,-0.499 -0.379,-0.833 v -14.56 c 0,-0.334 0.129,-0.61 0.392,-0.833 0.26,-0.219 0.57,-0.33 0.937,-0.33 0.383,0 0.691,0.111 0.927,0.33 0.236,0.223 0.353,0.499 0.353,0.833 v 14.56 z"
   id="path17" />
	<path
   clip-path="url(#SVGID_2_)"
   fill="#061c35"
   d="m 409.815,233.344 c 0.384,0 0.7,0.111 0.941,0.329 0.245,0.224 0.364,0.499 0.364,0.834 v 14.561 c 0,0.334 -0.119,0.609 -0.364,0.833 -0.241,0.218 -0.558,0.33 -0.941,0.33 -0.379,0 -0.695,-0.112 -0.936,-0.33 -0.245,-0.224 -0.365,-0.499 -0.365,-0.833 v -1.646 l 0.548,0.022 c 0,0.29 -0.129,0.605 -0.379,0.949 -0.254,0.344 -0.597,0.668 -1.034,0.98 -0.432,0.312 -0.943,0.571 -1.537,0.776 -0.593,0.205 -1.226,0.307 -1.902,0.307 -1.204,0 -2.282,-0.267 -3.236,-0.811 -0.958,-0.539 -1.716,-1.275 -2.273,-2.212 -0.557,-0.935 -0.833,-2.014 -0.833,-3.23 0,-1.216 0.276,-2.29 0.833,-3.227 0.558,-0.936 1.312,-1.676 2.261,-2.215 0.944,-0.539 1.996,-0.811 3.142,-0.811 0.749,0 1.439,0.106 2.077,0.321 0.632,0.214 1.185,0.484 1.653,0.819 0.472,0.338 0.838,0.69 1.096,1.065 0.263,0.37 0.393,0.726 0.393,1.06 l -0.807,0.067 v -6.778 c 0,-0.335 0.12,-0.61 0.365,-0.834 0.239,-0.215 0.556,-0.326 0.934,-0.326 m -5.321,15.014 c 0.833,0 1.561,-0.184 2.18,-0.549 0.615,-0.365 1.101,-0.859 1.449,-1.483 0.347,-0.62 0.521,-1.328 0.521,-2.122 0,-0.788 -0.174,-1.497 -0.521,-2.121 -0.349,-0.624 -0.839,-1.114 -1.463,-1.471 -0.628,-0.356 -1.35,-0.534 -2.166,-0.534 -0.802,0 -1.511,0.178 -2.126,0.534 -0.618,0.356 -1.104,0.847 -1.462,1.471 -0.355,0.624 -0.533,1.333 -0.533,2.121 0,0.794 0.178,1.502 0.533,2.122 0.357,0.624 0.844,1.118 1.462,1.483 0.615,0.366 1.324,0.549 2.126,0.549"
   id="path18" />
	<path
   clip-path="url(#SVGID_2_)"
   fill="#061c35"
   d="m 427.928,244.227 c 0,1.221 -0.303,2.295 -0.914,3.231 -0.61,0.936 -1.435,1.671 -2.478,2.202 -1.047,0.533 -2.219,0.797 -3.525,0.797 -1.306,0 -2.478,-0.264 -3.521,-0.797 -1.043,-0.531 -1.876,-1.267 -2.491,-2.202 -0.62,-0.937 -0.927,-2.011 -0.927,-3.231 0,-1.229 0.307,-2.313 0.927,-3.249 0.615,-0.936 1.448,-1.676 2.491,-2.215 1.043,-0.539 2.215,-0.811 3.521,-0.811 1.307,0 2.479,0.271 3.525,0.811 1.043,0.539 1.867,1.279 2.478,2.215 0.611,0.936 0.914,2.019 0.914,3.249 m -2.612,0 c 0,-0.833 -0.192,-1.56 -0.57,-2.179 -0.384,-0.615 -0.901,-1.097 -1.556,-1.449 -0.651,-0.347 -1.377,-0.521 -2.18,-0.521 -0.798,0 -1.528,0.174 -2.192,0.521 -0.659,0.353 -1.182,0.834 -1.564,1.449 -0.383,0.619 -0.575,1.346 -0.575,2.179 0,0.808 0.192,1.524 0.575,2.148 0.383,0.624 0.905,1.109 1.564,1.457 0.664,0.353 1.395,0.525 2.192,0.525 0.803,0 1.528,-0.173 2.18,-0.525 0.654,-0.348 1.172,-0.833 1.556,-1.457 0.378,-0.624 0.57,-1.341 0.57,-2.148"
   id="path19" />
	<path
   clip-path="url(#SVGID_2_)"
   fill="#061c35"
   d="m 431.061,238.112 c 0.264,0 0.508,0.062 0.744,0.183 0.236,0.125 0.406,0.308 0.508,0.548 l 4.097,8.285 -0.495,0.205 4.148,-8.468 c 0.246,-0.499 0.639,-0.744 1.178,-0.731 0.348,0 0.637,0.104 0.872,0.3 0.232,0.195 0.354,0.44 0.354,0.73 0,0.089 -0.018,0.191 -0.054,0.294 -0.036,0.107 -0.076,0.2 -0.129,0.276 l -4.96,9.765 c -0.224,0.459 -0.599,0.699 -1.119,0.731 -0.264,0.03 -0.526,-0.019 -0.784,-0.147 -0.263,-0.13 -0.455,-0.326 -0.575,-0.584 l -4.934,-9.742 c -0.031,-0.075 -0.067,-0.165 -0.103,-0.263 -0.036,-0.098 -0.054,-0.219 -0.054,-0.353 0,-0.231 0.121,-0.459 0.352,-0.687 0.236,-0.225 0.553,-0.342 0.954,-0.342"
   id="path20" />
	<path
   clip-path="url(#SVGID_2_)"
   fill="#061c35"
   d="m 456.316,238.045 c 0.384,0 0.7,0.112 0.941,0.33 0.244,0.223 0.364,0.499 0.364,0.833 v 9.859 c 0,0.334 -0.12,0.609 -0.364,0.833 -0.241,0.218 -0.558,0.33 -0.941,0.33 -0.379,0 -0.695,-0.112 -0.936,-0.33 -0.245,-0.224 -0.365,-0.499 -0.365,-0.833 v -1.646 l 0.548,0.094 c 0,0.259 -0.129,0.558 -0.379,0.9 -0.254,0.343 -0.598,0.664 -1.034,0.971 -0.432,0.305 -0.944,0.559 -1.537,0.764 -0.593,0.205 -1.226,0.307 -1.903,0.307 -1.203,0 -2.281,-0.267 -3.235,-0.811 -0.958,-0.539 -1.716,-1.279 -2.273,-2.225 -0.557,-0.939 -0.833,-2.014 -0.833,-3.218 0,-1.23 0.276,-2.313 0.833,-3.249 0.558,-0.936 1.312,-1.671 2.26,-2.201 0.945,-0.535 1.996,-0.802 3.143,-0.802 0.749,0 1.438,0.106 2.077,0.321 0.632,0.214 1.185,0.484 1.652,0.819 0.473,0.338 0.839,0.69 1.097,1.065 0.263,0.37 0.393,0.726 0.393,1.06 l -0.807,0.067 v -2.077 c 0,-0.32 0.12,-0.592 0.365,-0.82 0.239,-0.225 0.556,-0.341 0.934,-0.341 m -5.321,10.313 c 0.816,0 1.538,-0.184 2.166,-0.549 0.624,-0.365 1.114,-0.859 1.462,-1.492 0.348,-0.634 0.521,-1.337 0.521,-2.113 0,-0.775 -0.174,-1.479 -0.521,-2.108 -0.348,-0.632 -0.838,-1.127 -1.462,-1.483 -0.628,-0.356 -1.35,-0.534 -2.166,-0.534 -0.802,0 -1.511,0.178 -2.126,0.534 -0.619,0.356 -1.104,0.847 -1.462,1.471 -0.355,0.624 -0.534,1.333 -0.534,2.121 0,0.776 0.179,1.479 0.534,2.113 0.357,0.633 0.843,1.127 1.462,1.492 0.615,0.365 1.324,0.548 2.126,0.548"
   id="path21" />
	<path
   clip-path="url(#SVGID_2_)"
   fill="#28491f"
   d="m 380.006,153.686 c -2.297,1.306 -4.594,2.612 -6.892,3.919 -0.37,0.211 -0.604,0.627 -0.604,1.051 0.008,2.434 0.015,4.868 0.023,7.302 0,0.126 0.094,0.177 0.123,0.283 0.025,0.111 -0.013,0.239 0.043,0.332 0.035,0.062 0.106,0.059 0.148,0.111 0.101,0.115 0.204,0.185 0.34,0.251 0.152,0.083 0.288,0.154 0.463,0.164 0.116,0.009 0.205,-0.021 0.319,-0.04 0.134,-0.023 0.266,0.009 0.396,-0.049 2.242,-1.007 4.484,-2.013 6.727,-3.02 0.384,-0.173 0.596,-0.657 0.603,-1.052 0.049,-2.734 0.096,-5.467 0.144,-8.201 0.015,-0.936 -1.044,-1.5 -1.833,-1.051 m -0.64,3.166 c -0.031,1.766 -0.062,3.533 -0.093,5.299 -1.437,0.645 -2.873,1.29 -4.31,1.936 -0.005,-1.574 -0.01,-3.149 -0.015,-4.723 1.474,-0.838 2.946,-1.676 4.418,-2.512"
   id="path22" />
	<path
   clip-path="url(#SVGID_2_)"
   fill="#077551"
   d="m 373.189,164.131 c -2.819,3.52 -5.64,7.039 -8.458,10.559 -0.4,0.499 -0.8,0.998 -1.199,1.497 -0.411,0.512 -0.501,1.221 0,1.722 0.426,0.427 1.309,0.517 1.723,0 2.819,-3.52 5.638,-7.039 8.458,-10.559 0.399,-0.499 0.799,-0.998 1.198,-1.497 0.411,-0.513 0.501,-1.221 0,-1.722 -0.425,-0.425 -1.308,-0.515 -1.722,0"
   id="path23" />
	<path
   clip-path="url(#SVGID_2_)"
   fill="#077551"
   d="m 373.315,165.826 c 2.242,-1.007 4.484,-2.014 6.726,-3.02 0.049,-2.734 0.096,-5.468 0.144,-8.201 -2.297,1.306 -4.594,2.613 -6.892,3.919 0.008,2.434 0.015,4.868 0.022,7.302"
   id="path24" />
	<path
   clip-path="url(#SVGID_2_)"
   fill="#488135"
   d="m 379.569,153.553 c -2.297,1.306 -4.594,2.613 -6.891,3.919 -0.371,0.211 -0.605,0.627 -0.604,1.052 0.009,2.434 0.016,4.867 0.023,7.302 0,0.125 0.094,0.176 0.123,0.282 0.025,0.111 -0.012,0.238 0.043,0.332 0.036,0.062 0.106,0.06 0.15,0.111 0.1,0.116 0.203,0.185 0.339,0.252 0.152,0.082 0.289,0.153 0.463,0.163 0.116,0.009 0.206,-0.021 0.32,-0.04 0.134,-0.024 0.266,0.009 0.395,-0.049 2.242,-1.007 4.484,-2.013 6.726,-3.02 0.385,-0.173 0.597,-0.657 0.604,-1.052 0.048,-2.733 0.095,-5.467 0.143,-8.201 0.016,-0.936 -1.045,-1.5 -1.834,-1.051 m -0.639,3.166 c -0.031,1.766 -0.062,3.533 -0.092,5.299 -1.438,0.645 -2.873,1.291 -4.311,1.936 -0.005,-1.575 -0.01,-3.149 -0.015,-4.723 1.473,-0.836 2.946,-1.673 4.418,-2.512"
   id="path25" />
	<path
   clip-path="url(#SVGID_2_)"
   fill="#28491f"
   d="m 356.275,158.788 c 0.001,-0.425 -0.232,-0.841 -0.604,-1.052 -2.297,-1.306 -4.594,-2.613 -6.891,-3.919 -0.79,-0.449 -1.85,0.116 -1.832,1.051 0.047,2.734 0.094,5.468 0.142,8.201 0.007,0.396 0.219,0.88 0.603,1.052 2.242,1.007 4.484,2.014 6.727,3.021 0.127,0.056 0.258,0.024 0.39,0.046 0.118,0.021 0.211,0.05 0.33,0.04 0.171,-0.01 0.302,-0.079 0.452,-0.158 0.138,-0.067 0.245,-0.138 0.347,-0.256 0.042,-0.051 0.112,-0.048 0.148,-0.109 0.054,-0.094 0.018,-0.222 0.043,-0.333 0.029,-0.105 0.123,-0.157 0.123,-0.282 0.008,-2.434 0.015,-4.868 0.022,-7.302 m -2.452,5.43 c -1.438,-0.645 -2.873,-1.29 -4.311,-1.935 -0.031,-1.767 -0.061,-3.533 -0.092,-5.3 1.472,0.838 2.944,1.675 4.417,2.512 -0.004,1.575 -0.009,3.149 -0.014,4.723"
   id="path26" />
	<path
   clip-path="url(#SVGID_2_)"
   fill="#077551"
   d="m 353.875,165.985 c 2.819,3.52 5.639,7.039 8.458,10.56 l 1.199,1.497 c 0.411,0.513 1.293,0.429 1.722,0 0.508,-0.509 0.413,-1.208 0,-1.724 -2.818,-3.52 -5.639,-7.039 -8.458,-10.559 -0.398,-0.499 -0.799,-0.998 -1.199,-1.496 -0.41,-0.514 -1.293,-0.429 -1.722,0 -0.508,0.508 -0.413,1.208 0,1.722"
   id="path27" />
	<path
   clip-path="url(#SVGID_2_)"
   fill="#077551"
   d="m 355.471,165.958 c -2.242,-1.007 -4.483,-2.014 -6.726,-3.02 -0.048,-2.734 -0.095,-5.468 -0.144,-8.201 2.298,1.306 4.595,2.613 6.893,3.919 -0.008,2.434 -0.015,4.868 -0.023,7.302"
   id="path28" />
	<path
   clip-path="url(#SVGID_2_)"
   fill="#488135"
   d="m 356.712,158.656 c 0.001,-0.425 -0.233,-0.841 -0.603,-1.052 -2.299,-1.306 -4.596,-2.612 -6.893,-3.919 -0.79,-0.449 -1.849,0.116 -1.833,1.052 0.048,2.733 0.095,5.467 0.144,8.201 0.007,0.395 0.219,0.879 0.603,1.051 2.242,1.007 4.484,2.014 6.726,3.021 0.127,0.056 0.26,0.024 0.392,0.047 0.118,0.02 0.21,0.049 0.329,0.039 0.171,-0.01 0.302,-0.079 0.453,-0.158 0.138,-0.067 0.243,-0.138 0.346,-0.256 0.042,-0.05 0.112,-0.048 0.147,-0.109 0.055,-0.093 0.019,-0.222 0.043,-0.333 0.029,-0.105 0.123,-0.157 0.123,-0.282 0.008,-2.434 0.015,-4.868 0.023,-7.302 m -2.453,5.43 c -1.437,-0.645 -2.873,-1.29 -4.31,-1.936 -0.031,-1.766 -0.062,-3.532 -0.093,-5.299 1.473,0.838 2.944,1.675 4.416,2.512 -0.003,1.575 -0.008,3.149 -0.013,4.723"
   id="path29" />
	<line
   clip-path="url(#SVGID_2_)"
   fill="#ffffff"
   x1="364.39001"
   y1="146.061"
   x2="364.397"
   y2="198.649"
   id="line29" />
	<path
   clip-path="url(#SVGID_2_)"
   fill="#d25c3a"
   d="m 362.867,146.061 c 0.002,15.324 0.004,30.648 0.007,45.971 0,2.206 0,4.412 10e-4,6.618 0,1.959 3.045,1.962 3.044,0 -0.002,-15.324 -0.004,-30.648 -0.006,-45.971 -0.001,-2.206 -0.001,-4.412 -0.001,-6.618 -10e-4,-1.959 -3.045,-1.962 -3.045,0"
   id="path30" />
	<path
   clip-path="url(#SVGID_2_)"
   fill="#0b758d"
   d="m 369.861,133.905 c -1.489,-0.417 -3.083,0.442 -4.24,2.064 -0.588,0.824 -1.818,0.824 -2.406,0 -1.157,-1.622 -2.751,-2.481 -4.24,-2.064 -2.257,0.632 -3.893,2.23 -3.042,7.38 0.971,5.884 6.015,9.269 8.479,9.107 2.957,0.135 7.218,-3.221 8.291,-8.813 1.004,-5.233 -0.586,-7.042 -2.842,-7.674"
   id="path31" />
	<path
   clip-path="url(#SVGID_2_)"
   fill="#052e3c"
   d="m 364.224,150.626 c -2.544,0 -7.54,-3.385 -8.516,-9.303 -0.736,-4.455 0.254,-6.81 3.204,-7.639 1.551,-0.43 3.218,0.372 4.488,2.155 0.235,0.332 0.605,0.521 1.016,0.521 h 0.004 c 0.411,0 0.78,-0.192 1.012,-0.521 1.279,-1.783 2.95,-2.583 4.492,-2.155 2.933,0.824 3.887,3.345 3,7.937 -0.829,4.321 -4.417,9.005 -8.303,9.005 -0.129,-0.002 -0.267,0.002 -0.397,0 m -4.483,-16.599 c -0.236,0 -0.473,0.031 -0.704,0.098 -1.917,0.537 -3.757,1.803 -2.875,7.122 0.932,5.673 5.65,8.922 8.066,8.922 0.111,0 0.219,-0.002 0.344,0 3.004,0 6.917,-3.476 7.905,-8.633 1.088,-5.664 -1.007,-6.943 -2.678,-7.411 -1.351,-0.388 -2.844,0.363 -3.994,1.979 -0.319,0.452 -0.824,0.711 -1.386,0.713 h -0.004 c -0.557,0 -1.065,-0.261 -1.391,-0.715 -0.948,-1.337 -2.138,-2.075 -3.283,-2.075"
   id="path32" />
	<path
   clip-path="url(#SVGID_2_)"
   fill="#d81a33"
   d="m 367.668,137.811 c -0.893,-0.25 -1.848,0.265 -2.54,1.236 -0.354,0.494 -1.091,0.494 -1.442,0 -0.693,-0.971 -1.649,-1.486 -2.541,-1.236 -1.352,0.378 -2.331,1.336 -1.822,4.422 0.582,3.525 3.604,5.553 5.08,5.456 1.771,0.08 4.364,-2.076 4.967,-5.281 0.591,-3.137 -0.35,-4.22 -1.702,-4.597"
   id="path33" />
	<path
   clip-path="url(#SVGID_2_)"
   fill="#488132"
   d="m 408.938,146.781 -52.365,51.166 c -10.606,10.362 5.664,26.621 16.263,16.264 17.456,-17.055 34.911,-34.111 52.366,-51.166 10.605,-10.362 -5.665,-26.621 -16.264,-16.264"
   id="path34" />
	<path
   clip-path="url(#SVGID_2_)"
   fill="#e8663d"
   d="m 355.031,97.205 c -17.135,16.742 -34.27,33.485 -51.404,50.227 -10.604,10.362 5.664,26.621 16.265,16.264 17.134,-16.742 34.269,-33.485 51.403,-50.227 C 381.9,103.106 365.63,86.848 355.031,97.205"
   id="path35" />
	<path
   clip-path="url(#SVGID_2_)"
   fill="#ed8c6c"
   d="m 354.347,113.002 54.328,50.193 c 10.858,10.033 27.165,-6.193 16.264,-16.264 L 370.61,96.738 c -10.859,-10.033 -27.165,6.193 -16.263,16.264"
   id="path36" />
	<path
   clip-path="url(#SVGID_2_)"
   fill="#b1467d"
   d="m 303.454,163.046 c 17.25,16.485 34.501,32.969 51.751,49.455 10.701,10.227 26.99,-6.013 16.264,-16.265 l -51.751,-49.454 c -10.702,-10.226 -26.991,6.013 -16.264,16.264"
   id="path37" />
	<path
   clip-path="url(#SVGID_2_)"
   fill="#d57547"
   d="m 367.529,117.766 c -1.074,0.947 -2.479,2.149 -4.195,3.52 -0.986,-0.579 -1.748,-1.099 -2.254,-1.461 -3.155,-2.252 -5.169,-4.668 -6.761,-6.511 -0.833,-0.964 -4.216,-4.967 -3.66,-9.596 0.521,-4.345 4.971,-9.984 11.744,-10.195 6.623,-0.206 11.704,5.332 12.658,9.957 1.017,4.934 -2.579,9.309 -3.194,10.058 -0.443,0.539 -0.837,0.918 -1.023,1.099 -2.301,2.234 -3.315,3.129 -3.315,3.129"
   id="path38" />
	<path
   clip-path="url(#SVGID_2_)"
   fill="#9b1753"
   d="m 360.44,193.177 c 1.118,-0.893 2.581,-2.023 4.364,-3.308 0.955,0.628 1.69,1.185 2.179,1.57 3.038,2.406 4.931,4.919 6.43,6.839 0.784,1.004 3.964,5.17 3.18,9.766 -0.735,4.314 -5.46,9.726 -12.234,9.6 -6.625,-0.122 -11.427,-5.906 -12.149,-10.572 -0.771,-4.978 3.037,-9.17 3.689,-9.887 0.469,-0.517 0.881,-0.875 1.075,-1.047 2.409,-2.118 3.466,-2.961 3.466,-2.961"
   id="path39" />
	<path
   clip-path="url(#SVGID_2_)"
   fill="#db4a58"
   d="m 325.079,159.581 c 0.922,-1.146 2.089,-2.644 3.417,-4.469 -0.644,-0.981 -1.215,-1.737 -1.611,-2.238 -2.467,-3.123 -5.048,-5.07 -7.02,-6.612 -1.03,-0.807 -5.31,-4.079 -10.042,-3.287 -4.441,0.745 -10.023,5.576 -9.915,12.526 0.108,6.795 6.046,11.734 10.846,12.487 5.121,0.804 9.446,-3.091 10.186,-3.758 0.533,-0.48 0.904,-0.902 1.081,-1.102 2.187,-2.465 3.058,-3.547 3.058,-3.547"
   id="path40" />
	<path
   clip-path="url(#SVGID_2_)"
   fill="#0f712b"
   d="m 403.694,150.924 c -0.942,1.129 -2.137,2.606 -3.496,4.407 0.625,0.993 1.183,1.758 1.569,2.267 2.412,3.166 4.957,5.159 6.901,6.736 1.016,0.825 5.236,4.173 9.981,3.465 4.454,-0.665 10.121,-5.396 10.137,-12.346 0.014,-6.797 -5.836,-11.841 -10.621,-12.679 -5.106,-0.895 -9.5,2.922 -10.252,3.576 -0.542,0.47 -0.919,0.885 -1.101,1.082 -2.228,2.425 -3.118,3.492 -3.118,3.492"
   id="path41" />
	<path
   clip-path="url(#SVGID_2_)"
   fill="#061c35"
   d="m 196.555,189.129 h -38.269 v -23.117 h 31.535 c 3.155,0 5.852,-0.976 8.022,-2.896 2.251,-1.988 3.391,-4.604 3.391,-7.768 0,-3.227 -1.123,-5.923 -3.338,-8.022 -2.174,-2.046 -4.893,-3.084 -8.075,-3.084 h -31.535 v -20.88 h 38.269 c 3.164,0 5.865,-0.971 8.026,-2.892 2.247,-1.997 3.387,-4.608 3.387,-7.768 0,-3.227 -1.123,-5.923 -3.338,-8.022 -2.179,-2.05 -4.893,-3.089 -8.075,-3.089 h -50.128 c -3.214,0 -5.946,1.106 -8.12,3.289 -2.184,2.184 -3.289,4.916 -3.289,8.12 v 86.495 c 0,3.213 1.105,5.945 3.289,8.12 2.174,2.184 4.906,3.289 8.12,3.289 h 50.128 c 3.169,0 5.878,-1.007 8.053,-2.99 2.228,-2.046 3.36,-4.675 3.36,-7.822 0,-2.904 -1.105,-5.485 -3.289,-7.678 -2.188,-2.18 -4.92,-3.285 -8.124,-3.285"
   id="path42" />
	<path
   clip-path="url(#SVGID_2_)"
   fill="#061c35"
   d="m 284.292,104.992 c -2.112,-2.166 -4.889,-3.267 -8.258,-3.267 -3.035,0 -5.731,1.07 -8.013,3.178 -2.349,2.157 -3.539,4.875 -3.539,8.08 v 61.805 c 0,2.429 -0.651,4.626 -1.992,6.716 -1.368,2.135 -3.186,3.864 -5.401,5.143 -4.092,2.357 -9.226,2.331 -12.831,0.949 -1.645,-0.633 -3.36,-1.747 -5.018,-3.234 -1.293,-1.293 -2.741,-2.443 -4.305,-3.41 -4.056,-2.536 -8.557,-2.233 -12.711,1.391 -2.424,2.112 -3.654,4.773 -3.654,7.901 0,2.117 0.722,4.273 2.197,6.479 3.249,4.516 7.505,8.031 12.657,10.451 5.094,2.384 10.669,3.597 16.565,3.597 6.953,0 13.334,-1.688 18.968,-5.026 5.588,-3.313 10.112,-7.729 13.436,-13.13 3.352,-5.441 5.05,-11.44 5.05,-17.826 v -61.805 c 0,-3.152 -1.061,-5.839 -3.151,-7.992"
   id="path43" />
	<path
   clip-path="url(#SVGID_2_)"
   fill="#061c35"
   d="m 461.497,104.659 c -2.281,-2.148 -4.946,-3.24 -7.924,-3.24 -3.387,0 -6.239,1.096 -8.472,3.267 -2.246,2.183 -3.383,4.924 -3.383,8.142 v 86.455 c 0,3.195 1.074,5.918 3.19,8.097 2.131,2.193 4.947,3.308 8.365,3.308 3.067,0 5.799,-1.083 8.129,-3.223 2.376,-2.188 3.579,-4.941 3.579,-8.182 v -86.455 c 0.001,-3.227 -1.17,-5.972 -3.484,-8.169"
   id="path44" />
</g>
</svg>
